<?xml version="1.0" encoding="utf-8"?>
<!-- Generator: Adobe Illustrator 14.0.0, SVG Export Plug-In . SVG Version: 6.00 Build 43363)  -->
<!DOCTYPE svg PUBLIC "-//W3C//DTD SVG 1.1//EN" "http://www.w3.org/Graphics/SVG/1.1/DTD/svg11.dtd">
<svg version="1.1" id="Layer_1" xmlns="http://www.w3.org/2000/svg" xmlns:xlink="http://www.w3.org/1999/xlink" x="0px" y="0px"
	 width="100px" height="100px" viewBox="0 0 100 100" enable-background="new 0 0 100 100" xml:space="preserve">
<path fill="#3FA9F5" d="M35.379,95c-17.92,0-32.5-14.579-32.5-32.5v-50c0-4.142,3.358-7.5,7.5-7.5s7.5,3.358,7.5,7.5v50
	c0,9.649,7.851,17.5,17.5,17.5s17.5-7.851,17.5-17.5v-50c0-4.142,3.357-7.5,7.5-7.5s7.5,3.358,7.5,7.5v50
	C67.879,80.421,53.3,95,35.379,95L35.379,95z"/>
<path fill="#FCEE21" d="M91.399,27.53c-0.318,0-0.638-0.076-0.931-0.23l-5.09-2.676l-5.09,2.676
	c-0.673,0.355-1.489,0.296-2.106-0.152c-0.615-0.447-0.924-1.206-0.796-1.956l0.973-5.668L74.24,15.51
	c-0.545-0.531-0.741-1.326-0.506-2.05s0.861-1.251,1.615-1.361l5.69-0.827l2.546-5.157C83.923,5.432,84.617,5,85.379,5
	s1.456,0.432,1.793,1.115l2.546,5.157l5.69,0.827c0.754,0.109,1.38,0.637,1.615,1.361s0.039,1.519-0.506,2.05l-4.119,4.014
	l0.973,5.668c0.128,0.75-0.181,1.509-0.796,1.956C92.227,27.401,91.813,27.53,91.399,27.53L91.399,27.53z"/>
<path stroke="#3FA9F5" stroke-width="14" stroke-linecap="round" stroke-linejoin="round" d="M10,54.5"/>
<path fill="#3FA9F5" d="M77.879,42.5c0-4.142,3.357-7.5,7.5-7.5s7.5,3.358,7.5,7.5v45c0,4.143-3.357,7.5-7.5,7.5s-7.5-3.357-7.5-7.5
	V42.5z"/>
</svg>
